<svg width="586" height="607" viewBox="0 0 586 607" fill="none" xmlns="http://www.w3.org/2000/svg">
<g filter="url(#filter0_d_26_346)">
<path d="M103.148 264.123C95.5391 274.589 89.0064 285.839 83.686 297.637C112.412 342.459 153.97 379.884 201.497 403.817C222.526 402.12 245.754 395.619 263.313 383.913C239.593 359.33 217.636 335.043 191.362 313.214C165.089 291.384 135.069 276.252 103.146 264.121L103.148 264.123Z" fill="#DA6060"/>
<path d="M470.511 475.676C476.438 490.613 486.696 503.824 499.663 513.313C501.764 514.891 503.95 516.342 506.199 517.688C506.452 517.836 506.682 517.962 506.956 518.087C507.754 518.487 508.574 518.76 509.435 518.95C514.775 520.106 521.185 517.645 526.103 515.079C533.186 511.376 537.559 505.886 539.64 498.375C545.945 475.465 555.781 453.818 564.211 431.56C565.366 428.488 566.25 425.458 565.619 422.661C565.325 421.231 564.63 419.863 563.39 418.56C562.046 417.171 560.594 415.866 559.04 414.648C556.517 412.65 553.785 410.861 551.073 409.283C544.831 405.643 537.096 404.97 529.886 405.013C519.713 408.147 510.759 413.154 502.521 419.214C496.174 423.884 490.267 429.186 484.508 434.718C484.465 434.698 484.445 434.654 484.403 434.634C478.435 429.88 472.697 424.641 467.189 419.36C466.033 423.441 465.234 427.649 464.75 431.94C463.069 446.646 465.149 462.214 470.509 475.678L470.511 475.676Z" fill="url(#paint0_linear_26_346)"/>
<path d="M486.591 458.11C491.887 452.682 496.953 447.697 503.154 443.341C500.505 435.62 500.296 427.08 502.523 419.211C496.176 423.88 490.269 429.183 484.51 434.715C484.467 434.694 484.446 434.651 484.405 434.63C482.514 442.541 483.544 450.451 486.591 458.109V458.11Z" fill="url(#paint1_linear_26_346)"/>
<path d="M499.665 513.313C501.766 514.891 503.951 516.342 506.201 517.688C506.453 517.836 506.684 517.962 506.957 518.087C512.675 520.886 520.389 518.067 526.105 515.079C533.188 511.376 537.561 505.886 539.641 498.375C545.947 475.465 555.783 453.818 564.212 431.56C565.368 428.488 566.252 425.458 565.621 422.661C565.326 421.231 564.632 419.863 563.392 418.56C562.047 417.171 560.596 415.866 559.041 414.648C553.283 414.353 546.409 417.068 542.059 419.591C535.753 423.252 530.603 428.617 526.232 434.465C510.364 455.713 504.794 482.747 500.232 508.876C499.979 510.349 499.706 511.821 499.665 513.314V513.313Z" fill="url(#paint2_linear_26_346)"/>
<g style="mix-blend-mode:multiply">
<path d="M508.061 518.55C508.357 518.655 508.658 518.738 508.961 518.817C508.658 518.738 508.355 518.655 508.061 518.55Z" fill="#F2C6D4"/>
</g>
<g style="mix-blend-mode:multiply">
<path d="M509.45 518.934C509.45 518.934 509.441 518.944 509.436 518.949C509.366 518.934 509.301 518.908 509.231 518.891C509.303 518.908 509.378 518.917 509.45 518.932V518.934Z" fill="#F2C6D4"/>
</g>
<g style="mix-blend-mode:multiply">
<path d="M464.752 431.938C472.55 434.653 477.972 442.184 485.855 444.687C489.469 445.844 493.337 445.844 497.078 446.475C501.324 447.212 505.381 448.747 509.184 450.704C512.715 452.513 516.037 454.68 519.273 456.952C520.938 458.109 523.168 459.136 524.311 460.776C520.833 467.96 517.6 475.26 514.692 482.681C510.237 494.02 506.431 505.97 506.957 518.087C506.684 517.962 506.454 517.834 506.201 517.688C503.952 516.342 501.766 514.889 499.665 513.313C486.696 503.824 476.438 490.613 470.513 475.676C465.153 462.212 463.072 446.644 464.754 431.938H464.752Z" fill="#F2C6D4"/>
</g>
<g style="mix-blend-mode:multiply">
<path d="M506.957 518.087C512.675 520.886 520.389 518.067 526.105 515.079C533.188 511.376 537.56 505.886 539.641 498.375C545.947 475.465 555.783 453.818 564.212 431.56C565.368 428.488 566.252 425.458 565.62 422.661C562.952 421.021 558.832 421.273 555.889 422.052C550.425 423.482 545.653 426.954 541.849 431.14C538.066 435.326 535.144 440.228 532.391 445.152C525.666 457.248 519.739 469.807 514.694 482.683C510.238 494.022 506.433 505.972 506.959 518.089L506.957 518.087Z" fill="#CAB0D5"/>
</g>
<path d="M231.659 213.967C231.554 216.807 232.584 219.585 234.097 222.003C239.94 231.323 250.639 239.948 261.211 243.041C271.279 245.965 282.04 242.915 292.045 239.738C302.806 236.33 313.547 232.753 324.014 228.504C324.854 228.168 325.695 227.831 326.536 227.473C335.953 223.518 346.545 220.299 354.113 213.105C358.338 209.086 362.415 204.731 366.346 200.23C371.18 194.74 375.783 189.017 380.197 183.422C384.463 178.036 388.415 172.334 391.653 166.255C394.511 160.954 396.824 155.357 398.316 149.488C398.927 147.088 398.148 144.501 396.762 142.462C395.353 140.42 393.378 138.844 391.381 137.371C381.712 130.302 370.972 125.379 359.328 122.665C356.176 124.811 353.128 127.125 350.185 129.586C338.878 138.968 329.251 150.35 321.916 163.098C319.457 162.131 317.818 162.362 315.232 162.909C313.911 165.2 312.601 167.103 312.541 169.41C312.506 170.709 302.388 171.472 300.749 171.892C296.693 172.923 292.7 174.1 288.749 175.468C281.055 178.078 273.573 181.317 266.365 185.062C258.945 188.933 251.821 193.351 245.032 198.231C241.985 200.418 238.264 202.69 235.511 205.614C233.346 207.907 231.791 210.6 231.664 213.967H231.659Z" fill="url(#paint3_linear_26_346)"/>
<path d="M322.207 216.891C322.605 220.803 323.341 224.654 324.014 228.504C324.855 228.168 325.696 227.831 326.536 227.473C335.953 223.518 346.545 220.299 354.113 213.105C358.338 209.086 362.415 204.731 366.346 200.231C363.005 198.8 359.683 197.348 356.342 195.897C345.622 204.249 334.797 211.802 322.208 216.893L322.207 216.891Z" fill="url(#paint4_linear_26_346)"/>
<g style="mix-blend-mode:multiply">
<path d="M240.592 211.716C240.528 213.335 241.579 214.745 242.589 215.986C245.446 219.562 248.432 223.012 251.542 226.358C255.284 230.397 259.361 234.394 264.532 236.266C270.585 238.476 277.29 237.507 283.575 236.098C322.143 227.473 357.37 203.174 378.325 169.639C382.885 169.029 387.363 167.892 391.65 166.252C394.508 160.95 396.821 155.353 398.313 149.484C398.924 147.085 398.145 144.498 396.759 142.458C395.35 140.417 393.374 138.84 391.378 137.367C381.709 130.298 370.968 125.376 359.325 122.662C356.173 124.808 353.124 127.121 350.182 129.582C350.182 129.667 350.203 129.751 350.224 129.835C351.169 134.548 353.229 139.092 353.314 143.889C339.841 153.293 327.439 164.253 316.468 176.477C317.54 182.157 319.579 187.67 322.48 192.676C317.94 188.511 313.401 184.324 308.861 180.158C307.662 184.682 307.284 189.415 307.747 194.064C305.413 190.108 302.471 186.849 301.609 182.325C281.179 186.723 261.59 195.095 244.313 206.876C242.568 208.076 240.656 209.611 240.594 211.714L240.592 211.716Z" fill="#F2C6D4"/>
</g>
<path d="M20.865 227.726C23.1348 241.19 29.272 254.738 37.5535 265.615C70.2787 277.965 104.202 291.155 136.088 305.544C146.788 318.229 158.746 329.843 171.673 340.215C178.337 345.559 185.251 350.587 192.418 355.236C197.505 358.539 202.213 361.253 206.753 365.439C211.839 370.087 218.712 374.421 225.795 371.476C230.273 348.482 245.888 329.737 264.596 315.685C283.301 301.632 305.098 292.417 326.641 283.329C326.81 281.5 326.956 279.732 327.02 278.049C327.167 273.336 326.683 268.961 324.939 264.206C313.127 259.03 301.608 252.887 289.292 249.101C271.027 234.774 255.074 216.113 235.359 202.986C232.502 201.072 229.558 199.284 226.531 197.642C202.086 184.389 176.382 173.491 151.327 161.415C134.849 153.463 118.181 146.815 100.084 144.207C68.0931 165.918 40.8739 194.613 20.865 227.726Z" fill="url(#paint5_linear_26_346)"/>
<path d="M203.482 255.113C197.666 253.299 190.286 253.059 186.582 257.899C178.36 268.641 193.888 286.713 201.877 292.82C206.187 296.114 211.242 298.72 216.657 299.018C234.255 299.987 234.026 281.918 226.28 271.185C220.724 263.486 212.554 257.942 203.482 255.114V255.113Z" fill="url(#paint6_linear_26_346)"/>
<path d="M221.838 273.544C222.169 274.594 222.371 275.656 222.423 276.71C222.549 279.25 220.998 282.069 218.482 282.438C217.292 282.611 216.095 282.228 214.967 281.808C208.285 279.319 201.384 275.331 196.762 269.797C195.221 267.952 193.87 265.663 194.213 263.283C195.305 255.739 205 258.565 209.447 260.369C214.506 262.421 220.041 267.816 221.837 273.543L221.838 273.544Z" fill="#5092A8"/>
<path d="M196.49 282.574C189.691 284.229 182.711 285.15 175.716 285.315C170.702 275.651 167.047 263.939 162.031 254.274C154.422 250.096 145.326 248.23 138.68 242.643C132.032 237.056 126.392 229.937 123.974 221.593C125.903 222.323 128.995 222.098 130.997 221.598C139.056 234.571 151.506 246.051 165.813 251.374C170.779 260.114 174.22 271.687 177.416 281.219C182.082 281.551 188.709 278.663 192.887 276.56C194.229 278.512 195.15 280.622 196.492 282.574H196.49Z" fill="url(#paint7_linear_26_346)"/>
<g style="mix-blend-mode:multiply">
<path d="M20.865 227.726C23.1348 241.19 29.272 254.738 37.5535 265.615C45.5615 268.645 53.6538 271.717 61.7874 274.851C86.778 284.507 112.021 294.689 136.087 305.544C146.786 318.229 158.744 329.843 171.672 340.215C178.335 345.559 185.249 350.587 192.417 355.236C197.503 358.538 202.211 361.253 206.751 365.439C211.837 370.087 218.711 374.421 225.793 371.476C230.271 348.482 245.887 329.737 264.594 315.685C283.299 301.632 305.097 292.417 326.64 283.329C326.808 281.5 326.954 279.732 327.018 278.049C321.238 278.681 314.807 282.446 310.161 284.15C299.589 288.021 289.017 291.892 278.466 295.784C282.753 287.725 288.575 280.469 295.512 274.536C269.512 288.61 248.263 309.312 232.646 334.43C226.299 337.124 220.162 339.417 213.289 339.964C193.49 327.362 175.687 314.656 159.208 297.909C156.875 286.865 153.239 276.557 147.059 267.111C146.954 269.846 146.198 272.581 146.093 275.316C131.128 273.737 116.982 267.994 105.485 258.254C102.878 258.528 101.786 259.495 99.1795 259.748C96.0688 255.856 93.8626 251.648 91.9694 247.041C95.9003 244.664 99.9138 241.76 103.067 238.416C98.9061 238.647 94.7448 237.827 90.561 238.079C89.9093 236.628 90.1397 234.586 90.5404 233.051C95.9416 230.82 101.785 227.456 106.326 223.774C107.525 224.741 109.058 225.309 110.235 226.256C109.667 228.149 109.793 230.043 109.225 231.956C111.894 231.831 114.585 231.726 117.275 231.598C117.19 233.092 117.106 234.607 117.022 236.101C135.54 241.233 154.455 246.409 173.646 245.485C197.923 244.306 236.049 230.695 235.356 202.988C232.498 201.074 229.554 199.286 226.528 197.644C202.082 184.391 176.378 173.492 151.324 161.417C134.845 153.465 118.177 146.816 100.081 144.209C73.5562 162.217 50.3093 185.022 31.7293 211.172C27.9032 216.557 24.268 222.07 20.8633 227.728L20.865 227.726Z" fill="#F2C6D4"/>
</g>
<path d="M20.8647 227.726C23.1346 241.19 29.2717 254.737 37.5532 265.615C45.5613 268.644 53.6536 271.717 61.7872 274.851C61.7459 271.021 61.4518 266.983 61.7235 263.384C57.5192 258.631 53.2735 254.297 49.0709 249.541C51.4456 241.736 52.3071 233.932 52.7903 225.789C46.2543 220.235 39.2126 215.333 31.7307 211.168C27.9047 216.554 24.2695 222.067 20.8647 227.724L20.8647 227.726Z" fill="url(#paint8_linear_26_346)"/>
<path d="M242.009 123.963C246.303 131.813 249.429 140.338 251.24 149.109C254.777 166.196 252.817 183.668 242.27 197.938C239.72 201.389 236.833 204.576 233.74 207.525C226.185 214.767 217.3 220.659 208.295 225.958C206.766 226.889 205.21 227.788 203.669 228.674C189.043 237.049 171.403 239.996 154.859 236.803C127.133 231.456 105.781 209.606 98.0893 183.186C96.521 177.79 95.5168 172.212 95.1454 166.53C95.0525 165.165 95.0181 163.806 95.0147 162.448C94.9596 158.133 95.2915 153.847 95.9725 149.675C97.4995 140.302 100.765 131.398 105.475 123.305C114.3 108.132 128.127 95.8633 144.917 88.872C146.408 88.2507 147.881 87.6741 149.396 87.144C165.552 81.478 185.299 79.6553 201.264 86.6552C201.32 86.6896 201.377 86.724 201.451 86.743C202.287 87.1337 203.123 87.5227 203.943 87.9271C204.39 88.1233 204.821 88.335 205.253 88.5467C220.654 96.3384 233.698 108.803 242.012 123.963H242.009Z" fill="url(#paint9_linear_26_346)"/>
<g style="mix-blend-mode:multiply">
<path d="M206.643 223.912C207.205 224.566 207.765 225.247 208.295 225.958C206.766 226.889 205.21 227.788 203.669 228.674C189.043 237.049 171.403 239.996 154.859 236.803C127.133 231.456 105.781 209.606 98.0893 183.186C96.5348 176.389 95.4463 169.522 95.0147 162.448C94.97 162.042 94.9545 161.637 94.927 161.219C94.7344 157.357 94.798 153.274 95.9725 149.677C96.4712 148.162 97.1882 146.739 98.1649 145.424C103.332 138.601 114.076 138.636 121.446 142.97C128.818 147.274 133.743 154.663 138.872 161.487C149.164 175.107 161.272 187.324 174.794 197.737C185.71 206.122 197.672 213.464 206.646 223.914L206.643 223.912Z" fill="#EEDAD3"/>
</g>
<path d="M242.009 123.963C246.303 131.813 249.429 140.338 251.24 149.109C254.777 166.196 252.817 183.668 242.27 197.938C239.72 201.389 236.833 204.576 233.74 207.525C228.041 212.637 221.601 216.919 214.632 220.074C198.537 227.356 179.675 228.497 162.989 222.757C146.291 217.003 132.013 204.296 124.813 188.176C128.964 150.923 150.801 117.35 182.856 97.9873C189.829 93.7739 197.302 90.2404 205.251 88.545C220.652 96.3367 233.697 108.801 242.011 123.961L242.009 123.963Z" fill="url(#paint10_linear_26_346)"/>
<path d="M130.012 175.745C137.784 134.415 164.29 114.476 175.766 106.545C188.42 97.7996 200.815 92.6362 214.687 94.0957L218.37 96.7411L220.031 92.2678C220.031 92.2678 183.927 82.9581 145.641 131.491C136.792 142.67 131.071 159.541 128.371 173.84L130.013 175.747L130.012 175.745Z" fill="url(#paint11_linear_26_346)"/>
<path d="M145.639 131.489C183.925 82.9582 220.029 92.2679 220.029 92.2679L204.541 83.8859C204.541 83.8859 168.411 85.8531 143.113 122.252C127.503 144.71 123.405 170.157 123.405 170.157L128.371 173.84C131.071 159.541 136.792 142.67 145.641 131.491L145.639 131.489Z" fill="url(#paint12_linear_26_346)"/>
<path d="M139.251 203.358C155.143 217.993 176.913 224.079 198.256 220.795C219.599 217.511 238.614 203.459 249.379 184.723C250.247 184.938 251.04 185.67 251.908 185.885C244.06 196.788 235.151 208.477 223.654 215.418C211.136 222.976 195.835 225.218 181.348 223.247C152.952 220.855 138.792 205.544 138.792 205.544L139.249 203.358H139.251Z" fill="url(#paint13_linear_26_346)"/>
<path d="M223.656 215.418C211.137 222.975 195.837 225.218 181.349 223.247C152.954 220.855 138.793 205.544 138.793 205.544L139.044 204.342L136.962 208.685C150.141 224.834 172.198 232.672 192.879 230.161C213.56 227.65 232.517 215.437 244.865 198.642C247.684 194.811 249.881 190.188 251.909 185.885C244.06 196.788 235.151 208.477 223.654 215.418H223.656Z" fill="url(#paint14_linear_26_346)"/>
<path d="M138.73 192.219C138.776 192.401 138.824 192.554 138.857 192.719C140.398 199.308 140.202 213.673 129.614 212.948C129.081 212.908 128.579 212.841 128.082 212.716C125.267 212.089 122.799 210.385 120.671 208.528C114.36 202.976 109.511 195.188 107.925 186.776C106.938 181.571 106.549 173.1 112.155 169.845C112.654 169.554 113.209 169.296 113.82 169.103C126.086 165.043 136.405 183.139 138.73 192.217V192.219Z" fill="url(#paint15_linear_26_346)"/>
<path d="M138.73 192.219C138.776 192.401 138.824 192.554 138.857 192.719C140.398 199.308 140.202 213.673 129.614 212.948C129.081 212.908 128.579 212.841 128.082 212.716C131.905 211.805 134.848 208.458 136.035 204.712C137.237 200.953 136.898 196.855 135.884 193.036C133.554 184.212 127.619 176.389 119.733 171.78C117.448 170.448 114.697 169.35 112.157 169.847C112.656 169.556 113.211 169.298 113.822 169.105C126.087 165.045 136.406 183.141 138.731 192.219H138.73Z" fill="url(#paint16_linear_26_346)"/>
<path d="M126.404 193.146C127.148 195.398 126.785 199.909 123.656 199.807C120.526 199.706 117.771 195.809 116.401 193.442C115.068 191.138 114.439 188.329 114.735 185.676C114.834 184.781 115.242 183.886 115.983 183.377C118.122 181.912 121.761 184.869 122.727 186.649C122.003 185.785 121.042 185.112 120.038 184.599C119.035 184.086 117.704 184.041 116.867 184.795C115.854 185.706 115.952 187.312 116.274 188.637C116.955 191.437 118.28 194.077 120.117 196.298C121.064 197.442 122.392 198.558 123.855 198.308C124.861 198.136 125.675 197.31 126.02 196.349C126.366 195.389 126.667 194.131 126.404 193.145V193.146Z" fill="#D23C2E"/>
<path style="mix-blend-mode:screen" d="M215.378 97.5604C229.002 107.455 246.943 131.453 248.975 156.668C248.258 167.684 240.517 177.634 230.466 182.176C220.413 186.719 208.477 186.181 198.298 181.931C188.118 177.682 179.621 169.974 173.224 160.981C166.828 151.988 162.412 141.727 158.9 131.262C172.117 112.452 192.642 98.0045 215.378 97.5604V97.5604Z" fill="url(#paint17_linear_26_346)"/>
<path style="mix-blend-mode:screen" d="M223.85 147.966C226.129 149.222 228.677 150.384 231.239 149.94C233.734 149.508 235.781 147.568 236.883 145.286C237.985 143.004 238.264 140.414 238.296 137.878C238.393 130.445 236.467 122.994 232.784 116.538C229.833 111.367 225.671 106.765 220.384 104.035C215.096 101.307 208.618 100.621 203.136 102.936C178.299 113.429 212.453 141.68 223.85 147.964V147.966Z" fill="url(#paint18_linear_26_346)"/>
<path style="mix-blend-mode:screen" d="M246.148 166.804C243.438 151.582 225.329 165.418 227.637 176.305C228.785 181.72 232.57 191.091 238.979 185.573C243.763 181.454 247.254 173.021 246.146 166.804H246.148Z" fill="url(#paint19_linear_26_346)"/>
<path d="M436.498 64.4575C440.26 58.3061 440.706 50.4577 438.573 43.5679C436.553 37.0396 431.924 30.9553 425.41 28.9089C421.534 27.6903 417.321 27.9812 413.373 28.9364C409.757 29.8108 406.218 31.2651 403.367 33.6575C398.922 37.3873 396.485 43.2702 396.573 49.0756C396.661 54.8811 399.159 60.5402 403.081 64.819C406.877 68.9601 411.757 71.5762 417.037 73.3077C421.625 74.812 426.822 73.1958 430.698 70.5384C433.023 68.9429 435.026 66.8637 436.498 64.4558V64.4575Z" fill="#F9B03D"/>
<path d="M430.123 66.1339C425.199 70.6777 417.971 70.5676 412.302 67.5211C405.621 63.9308 402.039 56.628 401.548 49.2047C401.274 45.0756 402.184 40.7831 404.462 37.2943C406.6 34.0224 410.735 32.2513 414.486 31.7109C423.053 30.4751 431.131 33.358 434.797 41.7108C438.298 49.6849 436.603 60.1546 430.123 66.1322V66.1339Z" fill="#FFE0AA"/>
<path d="M380.431 61.029C377.104 49.3286 373.13 37.8606 369.803 26.1585C358.058 23.4683 345.832 19.0536 333.85 17.7851C332.094 17.5992 330.88 15.835 330.567 14.0949C330.246 12.3135 330.629 10.4151 331.614 8.89704C332.6 7.37899 333.664 6.09673 335.421 5.66644C348.224 10.0296 360.288 15.7438 372.103 22.3289C375.561 34.2238 379.018 46.1169 382.476 58.0118C381.344 59.2665 381.563 59.7725 380.431 61.0255V61.029Z" fill="url(#paint20_linear_26_346)"/>
<path d="M350.482 96.5002C350.349 107.424 351.739 118.366 354.596 128.909C355.977 134.006 355.295 139.643 356.189 144.847C357.399 151.889 365.512 156.197 372.489 157.715C379.465 159.234 386.711 158.393 393.799 157.544C403.374 156.4 408.094 144.78 411.188 135.639C414.281 126.498 414.857 116.715 415.155 107.068C415.246 104.109 415.232 100.889 413.421 98.5501C411.934 96.6293 409.504 95.6964 407.135 95.1629C397.216 92.9305 386.825 96.1818 376.731 94.9667C372.255 94.4279 367.901 93.0166 363.404 92.7016C358.907 92.3866 353.419 93.0768 350.483 96.5019L350.482 96.5002Z" fill="url(#paint21_linear_26_346)"/>
<path d="M366.81 156.811C382.539 159.219 398.922 159.05 415.827 156.811L422.31 53.1599C400.892 48.1995 380.068 47.6436 360.328 53.1599L366.81 156.811Z" fill="url(#paint22_linear_26_346)"/>
<path d="M417.39 70.3593L412.565 153.615H369.092L366.231 70.3593C386.445 60.6916 407.061 76.8791 417.39 70.3593Z" fill="#F9B03D"/>
<g style="mix-blend-mode:multiply">
<path d="M377.322 156.024C381.614 156.097 385.666 155.508 389.956 155.58C389.83 151.102 389.634 146.658 390.026 142.195C396.293 141.207 402.437 140.637 408.778 140.715C411.435 126.596 412.5 112.178 411.944 97.822C411.896 96.5708 411.805 95.2317 411.041 94.2386C410.175 93.1113 408.674 92.724 407.288 92.4073C401.168 91.008 395.068 89.6621 388.948 88.2628V62.6589C383.796 63.0341 379.193 63.208 374.122 64.1994C374.279 70.1064 374.1 76.2681 374.258 82.1751C370.473 87.7482 367.519 93.7446 364.125 99.5656C367.067 101.662 370.568 103.574 373.928 104.901C375.281 121.338 377.226 139.531 377.324 156.023L377.322 156.024Z" fill="#F2C6D4"/>
</g>
<path d="M369.209 73.8378C372.762 76.6983 375.109 81.015 375.577 85.5554C372.005 92.4985 367.97 98.8874 363.033 104.934C362.728 107.321 363.172 109.873 362.868 112.261C362.904 111.98 358.354 109.347 357.857 108.982C356.082 107.674 354.395 106.245 352.861 104.66C351.403 103.154 350.246 102.089 349.907 100.061C349.491 97.5707 349.536 94.9081 349.354 92.3866C352.602 88.9598 356.479 86.2576 360.464 83.7241C363.923 81.5261 367.208 77.4178 369.208 73.8378H369.209Z" fill="url(#paint23_linear_26_346)"/>
<path d="M388.408 131.047C390.047 131.679 391.036 132.582 392.339 133.741C391.772 135.844 390.995 137.317 390.974 139.484C396.186 142.997 402.177 145.143 408.25 146.784C408.545 146.868 408.861 146.952 409.155 147.037C415.566 148.761 422.186 148.321 428.619 146.679C429.754 142.324 429.922 137.865 430.111 133.362C429.628 132.605 428.639 131.3 427.757 131.047C427.609 123.264 427.737 115.331 428.767 107.612C428.787 107.38 428.808 107.149 428.851 106.918C430.154 106.476 431.331 106.077 432.634 105.657C432.655 105.636 432.655 105.615 432.675 105.593C435.282 101.111 436.691 96.884 436.816 91.6878C430.301 89.0372 422.293 85.039 415.419 83.4401C415.272 83.4607 415.146 83.4831 414.998 83.5244C410.711 84.218 406.044 85.397 402.008 86.891C399.739 86.576 396.753 86.2593 394.504 85.9443C393.201 89.1216 392.508 92.7601 392.403 96.1903C396.879 98.4416 401.505 100.104 406.507 100.251C407.874 101.681 408.503 103.09 409.87 104.521C403.628 105.299 397.09 106.772 391.081 108.665C388.957 115.987 388.011 123.455 388.412 131.049L388.408 131.047Z" fill="url(#paint24_linear_26_346)"/>
<path d="M413.86 92.8634C414.028 90.3815 414.281 87.8979 414.596 85.4366C414.68 84.805 414.764 84.132 414.995 83.5227C415.143 83.4814 415.268 83.459 415.416 83.4384C422.289 85.0373 430.297 89.0338 436.813 91.6861C436.687 96.8823 435.279 101.111 432.672 105.591C431.979 105.297 431.284 104.898 430.739 104.665C429.31 104.056 427.859 103.466 426.43 102.856C423.55 101.636 420.671 100.436 417.791 99.2385C416.529 98.7119 415.205 98.1232 414.47 96.9666C413.714 95.7876 413.755 94.273 413.86 92.8634V92.8634ZM407.807 142.407C407.702 143.858 407.786 145.415 408.249 146.782C408.543 146.866 408.859 146.951 409.153 147.035C415.564 148.759 422.184 148.319 428.617 146.677C429.752 142.322 429.921 137.863 430.11 133.36C429.627 132.603 428.638 131.298 427.756 131.045C427.608 123.262 427.735 115.33 428.765 107.61C423.152 106.264 417.352 105.696 411.571 105.948C409.869 110.156 409.069 114.805 408.524 119.328C413.652 119.98 419.306 120.927 424.456 121.579C418.845 122.19 413.547 122.211 407.957 121.348C407.578 124.483 407.221 128.018 406.842 131.131C413.337 132.625 420.042 132.794 426.6 131.679C420.757 133.994 414.431 134.961 408.209 134.076C408.567 136.748 408.041 139.715 407.81 142.407H407.807Z" fill="#5092A8"/>
<path style="mix-blend-mode:screen" d="M364.359 77.3523C363.495 70.664 362.548 63.3146 361.685 56.6262C380.817 51.9877 400.879 51.8604 420.076 56.2149C419.829 65.0134 419.208 73.8016 418.217 82.5468C414.938 81.6638 412.185 81.4211 408.809 81.0442C407.635 72.5589 406.087 65.0272 404.913 56.5419C393.055 54.7192 380.966 55.1736 369.474 58.6245C369.675 63.5745 370.021 68.8103 369.913 73.7637C367.853 75.1166 366.419 75.9995 364.359 77.3523V77.3523Z" fill="url(#paint25_linear_26_346)"/>
<path d="M335.344 15.8728C335.141 16.1637 334.913 16.4477 334.601 16.6181C333.621 17.1499 332.746 16.0432 332.386 15.2722C331.74 13.8866 331.64 12.255 332.113 10.8006C332.66 9.11904 333.944 7.71114 335.599 7.0812C335.865 6.97965 336.166 6.89876 336.427 7.01235C337.549 7.49772 337.232 9.97446 337.146 10.9108C336.983 12.6732 336.371 14.3892 335.344 15.8728V15.8728Z" fill="#F08458"/>
<path d="M433.267 52.6401C436.242 56.1513 432.247 66.4231 427.006 63.7656C425.777 63.1426 425.135 61.7708 424.685 60.4662C423.99 58.4559 423.532 56.3647 423.323 54.2477C423.259 53.6091 423.247 52.8862 423.685 52.4181C423.969 52.1169 424.384 51.9861 424.779 51.8673C426.224 51.4336 427.696 50.9964 429.204 50.9947C430.712 50.993 432.292 51.4869 433.269 52.6384L433.267 52.6401Z" fill="#F7C771"/>
<path d="M433.203 44.8932C433.788 41.0911 429.79 36.8657 426.7 35.2547C426.06 34.9208 425.366 34.6368 424.645 34.6626C420.932 34.7952 419.154 40.623 419.182 43.5266C419.215 46.8949 421.656 50.332 425.331 50.1151C428.359 49.9379 432.655 48.3389 433.203 44.8914V44.8932Z" fill="#F7C771"/>
<path d="M416.682 42.7761C416.166 45.0377 414.61 47.2167 412.359 47.7744C410.154 48.3217 407.908 47.246 405.891 46.2012C404.954 45.7159 403.96 45.1754 403.47 44.2408C402.767 42.8983 403.346 41.2512 404.086 39.9276C405.333 37.6953 407.095 35.6661 409.411 34.5852C411.234 33.7349 414.986 33.0998 416.315 35.1514C417.459 36.9139 417.108 40.907 416.683 42.7761H416.682Z" fill="#F7C771"/>
<path d="M222.956 372.275C227.076 374.421 231.994 375.641 235.547 378.607C235.904 378.901 236.24 379.196 236.597 379.469C269.218 406.524 302.154 427.982 336.771 446.558C357.6 457.708 379.038 467.805 401.403 477.42C401.487 478.346 401.551 479.272 401.634 480.218C402.096 485.878 402.643 491.685 403.295 497.68C403.673 501.046 404.072 504.454 404.514 507.946C411.303 521.495 452.877 564.011 467.653 571.059C474.884 571.501 481.967 570.701 488.63 568.703C497.037 566.221 504.815 561.823 511.499 555.617C511.752 553.008 511.898 550.378 511.898 547.727C511.918 537.102 509.607 526.48 503.197 517.958C500.843 514.824 498.342 511.774 495.904 508.681C491.784 503.506 487.791 498.225 484.765 492.397C484.029 490.967 483.336 489.514 482.725 488.022C481.296 484.509 479.719 480.891 478.311 477.208C476.335 472.138 474.633 466.962 473.856 461.766C473.666 460.461 473.519 459.157 473.457 457.854C472.069 432.062 472.741 399.328 471.312 374.313C470.702 363.542 469.694 354.201 467.971 347.447C462.759 334.11 451.83 315.238 442.917 311.346C441.739 310.988 440.584 310.652 439.407 310.315C412.231 302.425 383.289 297.334 355.165 295.147C351.781 291.296 347.137 287.909 343.165 284.67C340.558 285.133 337.426 285.217 334.842 285.68C334.716 285.617 334.589 285.532 334.464 285.47C332.214 284.25 329.336 283.093 327.171 281.873C304.87 291.067 282.317 300.429 262.94 314.797C254.847 320.814 247.322 327.694 240.975 335.415C232.17 346.165 225.632 358.494 222.963 372.273L222.956 372.275Z" fill="url(#paint26_linear_26_346)"/>
<path d="M392.922 417.283C394.411 434.377 396.607 451.582 400.478 468.3C401.164 449.969 399.622 431.565 396.487 413.493C395.146 415.372 394.263 415.405 392.922 417.285V417.283Z" fill="#EE7778"/>
<path d="M363.86 368.614C358.226 364.404 352.328 360.397 346.695 356.187C360.58 362.015 372.91 368.731 385.729 376.635C378.038 374.488 370.258 373.397 363.86 368.614V368.614Z" fill="#EE7778"/>
<path d="M397.895 423.183C382.673 414.268 366.592 406.824 349.948 400.987C353.083 389.323 357.224 378.402 362.95 367.769C370.578 370.134 378.615 373.001 385.727 376.635C391.964 390.591 396.121 407.997 397.895 423.183Z" fill="url(#paint27_linear_26_346)"/>
<path d="M390.432 342.676C403.611 354.92 413.636 371.246 418.449 388.581C437.072 390.495 456.429 385.616 471.311 374.318C470.7 363.547 469.692 354.206 467.969 347.452C462.757 334.115 451.828 315.243 442.915 311.351C441.737 310.993 440.582 310.658 439.406 310.32C419.269 312.677 400.459 325.005 390.432 342.676Z" fill="url(#paint28_linear_26_346)"/>
<path d="M403.295 497.681C403.673 501.048 404.072 504.456 404.514 507.948C411.303 521.497 452.877 564.013 467.653 571.061C483.984 572.049 499.517 566.748 511.497 555.619C511.75 553.009 511.896 550.379 511.896 547.729C500.146 556.292 486.065 561.593 471.582 562.877C444.869 545.163 422.841 522.485 403.293 497.681H403.295Z" fill="url(#paint29_linear_26_346)"/>
<g style="mix-blend-mode:multiply">
<path d="M240.97 335.418C244.27 337.606 247.128 341.225 250.555 343.981C263.734 354.521 279.078 363.588 294.126 371.246C299.78 367.29 306.801 365.249 313.462 363.419C309.825 367.669 306.232 372.507 303.647 377.473C315.375 386.961 327.797 394.787 340.891 401.288C353.797 407.725 367.374 412.901 381.625 417.15C383.685 405.684 382.276 394.135 378.555 383.111C366.176 374.023 353.271 365.461 340.092 357.53C339.167 356.962 338.221 356.394 337.296 355.846C338.178 356.204 339.062 356.54 339.964 356.919C338.83 350.649 339.86 344.086 341.961 338.027C344.167 331.632 347.531 325.699 350.894 319.809C350.306 323.869 351.525 327.824 350.935 331.885C352.492 328.771 355.896 326.752 357.451 323.659C377.166 330.306 397.218 339.437 414.768 350.609C422.25 398.681 426.139 448.393 423.575 496.969C436.312 520.447 450.457 544.746 473.452 558.336C477.781 560.903 482.426 563.049 486.252 566.331C487.093 567.047 487.913 567.846 488.627 568.708C481.963 570.706 474.881 571.507 467.65 571.064C452.873 564.016 411.299 521.5 404.51 507.951C404.068 504.459 403.67 501.051 403.291 497.685C402.639 491.69 402.093 485.883 401.63 480.224C401.546 479.277 401.482 478.351 401.4 477.425C398.604 476.225 395.83 475.005 393.055 473.785C387.296 471.26 381.599 468.694 375.967 466.064C373.844 465.096 371.742 464.107 369.662 463.119C367.287 461.983 364.912 460.847 362.558 459.711C360.897 458.912 359.237 458.091 357.597 457.27C353.226 455.103 348.896 452.916 344.587 450.665C342.043 449.36 339.5 448.035 336.978 446.668C336.914 446.647 336.83 446.604 336.768 446.563C301.773 427.797 268.501 406.066 235.543 378.612C231.991 375.645 227.073 374.426 222.953 372.28C225.621 358.5 232.159 346.172 240.965 335.422L240.97 335.418Z" fill="#F2C6D4"/>
</g>
<g style="mix-blend-mode:multiply">
<path d="M309.566 358.096C316.857 352.647 324.646 348.291 333.189 345.155C335.335 336.334 338.805 327.838 343.45 320.041C330.13 331.28 319.381 343.688 309.567 358.098L309.566 358.096Z" fill="#F2C6D4"/>
</g>
<path d="M222.956 372.275C227.076 374.421 231.994 375.641 235.547 378.607C235.904 378.901 236.24 379.196 236.597 379.469C242.188 360.829 249.125 342.275 262.828 328.747C270.71 320.962 280.398 315.325 290.047 309.897C297.255 305.816 304.507 301.818 311.801 297.885C319.6 293.656 327.061 290.123 334.458 285.472C332.209 284.252 329.331 283.095 327.166 281.875C304.865 291.069 282.312 300.431 262.934 314.799C254.842 320.816 247.317 327.695 240.97 335.416C232.164 346.167 225.627 358.495 222.958 372.275H222.956Z" fill="url(#paint30_linear_26_346)"/>
<g style="mix-blend-mode:multiply">
<path d="M296.619 329.704C310.126 323.207 323.635 316.709 337.144 310.212C321.694 310.281 306.331 317.675 296.619 329.704Z" fill="#F2C6D4"/>
</g>
<path d="M431.753 477.212C432.993 483.607 435.306 490.255 438.374 495.998C453.38 495.156 468.22 488.341 478.309 477.212C476.333 472.141 474.631 466.966 473.854 461.77C460.864 469.343 446.55 474.602 431.753 477.212V477.212Z" fill="url(#paint31_linear_26_346)"/>
<path d="M447.622 514.659C451.07 520.086 455.209 523.411 460.19 527.45C468.556 516.342 482.049 509.294 495.901 508.685C491.78 503.509 487.788 498.229 484.761 492.401C469.839 493.936 456.428 502.435 447.622 514.659Z" fill="url(#paint32_linear_26_346)"/>
</g>
<defs>
<filter id="filter0_d_26_346" x="0.863281" y="0.666443" width="584.967" height="605.516" filterUnits="userSpaceOnUse" color-interpolation-filters="sRGB">
<feFlood flood-opacity="0" result="BackgroundImageFix"/>
<feColorMatrix in="SourceAlpha" type="matrix" values="0 0 0 0 0 0 0 0 0 0 0 0 0 0 0 0 0 0 127 0" result="hardAlpha"/>
<feOffset dy="15"/>
<feGaussianBlur stdDeviation="10"/>
<feComposite in2="hardAlpha" operator="out"/>
<feColorMatrix type="matrix" values="0 0 0 0 0.6625 0 0 0 0 0 0 0 0 0 0 0 0 0 0.15 0"/>
<feBlend mode="normal" in2="BackgroundImageFix" result="effect1_dropShadow_26_346"/>
<feBlend mode="normal" in="SourceGraphic" in2="effect1_dropShadow_26_346" result="shape"/>
</filter>
<linearGradient id="paint0_linear_26_346" x1="487.22" y1="498.907" x2="521.261" y2="415.494" gradientUnits="userSpaceOnUse">
<stop stop-color="#EF7878"/>
<stop offset="0.06" stop-color="#F0847E"/>
<stop offset="0.23" stop-color="#F6A58D"/>
<stop offset="0.41" stop-color="#F9BF9A"/>
<stop offset="0.59" stop-color="#FCD1A3"/>
<stop offset="0.79" stop-color="#FEDCA8"/>
<stop offset="1" stop-color="#FFE0AA"/>
</linearGradient>
<linearGradient id="paint1_linear_26_346" x1="499.544" y1="420.322" x2="488.076" y2="457.38" gradientUnits="userSpaceOnUse">
<stop stop-color="#3D8091"/>
<stop offset="1" stop-color="#1D3D78"/>
</linearGradient>
<linearGradient id="paint2_linear_26_346" x1="543.883" y1="418.784" x2="520.768" y2="518.412" gradientUnits="userSpaceOnUse">
<stop stop-color="#E94D35"/>
<stop offset="1" stop-color="#B1191C"/>
</linearGradient>
<linearGradient id="paint3_linear_26_346" x1="249.601" y1="243.03" x2="369.53" y2="153.614" gradientUnits="userSpaceOnUse">
<stop stop-color="#EF7878"/>
<stop offset="0.06" stop-color="#F0847E"/>
<stop offset="0.23" stop-color="#F6A58D"/>
<stop offset="0.41" stop-color="#F9BF9A"/>
<stop offset="0.59" stop-color="#FCD1A3"/>
<stop offset="0.79" stop-color="#FEDCA8"/>
<stop offset="1" stop-color="#FFE0AA"/>
</linearGradient>
<linearGradient id="paint4_linear_26_346" x1="366.345" y1="212.199" x2="322.207" y2="212.199" gradientUnits="userSpaceOnUse">
<stop stop-color="#3D8091"/>
<stop offset="1" stop-color="#1D3D78"/>
</linearGradient>
<linearGradient id="paint5_linear_26_346" x1="66.6469" y1="305.432" x2="239.149" y2="220.333" gradientUnits="userSpaceOnUse">
<stop stop-color="#EF7878"/>
<stop offset="0.06" stop-color="#F0847E"/>
<stop offset="0.23" stop-color="#F6A58D"/>
<stop offset="0.41" stop-color="#F9BF9A"/>
<stop offset="0.59" stop-color="#FCD1A3"/>
<stop offset="0.79" stop-color="#FEDCA8"/>
<stop offset="1" stop-color="#FFE0AA"/>
</linearGradient>
<linearGradient id="paint6_linear_26_346" x1="234.671" y1="264.441" x2="146.638" y2="303.056" gradientUnits="userSpaceOnUse">
<stop stop-color="#3D8091"/>
<stop offset="1" stop-color="#1D3D78"/>
</linearGradient>
<linearGradient id="paint7_linear_26_346" x1="218.098" y1="226.655" x2="130.063" y2="265.27" gradientUnits="userSpaceOnUse">
<stop stop-color="#3D8091"/>
<stop offset="1" stop-color="#1D3D78"/>
</linearGradient>
<linearGradient id="paint8_linear_26_346" x1="1.60208" y1="186.917" x2="58.1948" y2="263.139" gradientUnits="userSpaceOnUse">
<stop stop-color="#3D8091"/>
<stop offset="1" stop-color="#1D3D78"/>
</linearGradient>
<linearGradient id="paint9_linear_26_346" x1="137.133" y1="207.89" x2="195.938" y2="131.361" gradientUnits="userSpaceOnUse">
<stop stop-color="#EE7664"/>
<stop offset="0.07" stop-color="#F0846B"/>
<stop offset="0.24" stop-color="#F5A57C"/>
<stop offset="0.41" stop-color="#F9BF8A"/>
<stop offset="0.6" stop-color="#FCD193"/>
<stop offset="0.79" stop-color="#FEDC99"/>
<stop offset="1" stop-color="#FFE09B"/>
</linearGradient>
<linearGradient id="paint10_linear_26_346" x1="217.283" y1="48.7249" x2="175.164" y2="240.078" gradientUnits="userSpaceOnUse">
<stop stop-color="#3D8091"/>
<stop offset="1" stop-color="#1D3D78"/>
</linearGradient>
<linearGradient id="paint11_linear_26_346" x1="221.99" y1="82.2148" x2="120.446" y2="165.443" gradientUnits="userSpaceOnUse">
<stop stop-color="#D3E8D2"/>
<stop offset="0.13" stop-color="#CDE4CF"/>
<stop offset="0.31" stop-color="#BCDBC9"/>
<stop offset="0.52" stop-color="#A0CBBE"/>
<stop offset="0.74" stop-color="#79B5B0"/>
<stop offset="0.98" stop-color="#48999D"/>
<stop offset="1" stop-color="#44979C"/>
</linearGradient>
<linearGradient id="paint12_linear_26_346" x1="225.241" y1="80.1868" x2="112.258" y2="161.227" gradientUnits="userSpaceOnUse">
<stop stop-color="#BFDDBD"/>
<stop offset="0.28" stop-color="#95CAB1"/>
<stop offset="0.54" stop-color="#73BAA7"/>
<stop offset="0.69" stop-color="#67B5A4"/>
<stop offset="0.75" stop-color="#6FB8A6"/>
<stop offset="0.84" stop-color="#86C3AD"/>
<stop offset="0.95" stop-color="#ACD4B7"/>
<stop offset="1" stop-color="#BFDDBD"/>
</linearGradient>
<linearGradient id="paint13_linear_26_346" x1="268.101" y1="138.476" x2="166.558" y2="221.703" gradientUnits="userSpaceOnUse">
<stop stop-color="#D3E8D2"/>
<stop offset="0.13" stop-color="#CDE4CF"/>
<stop offset="0.31" stop-color="#BCDBC9"/>
<stop offset="0.52" stop-color="#A0CBBE"/>
<stop offset="0.74" stop-color="#79B5B0"/>
<stop offset="0.98" stop-color="#48999D"/>
<stop offset="1" stop-color="#44979C"/>
</linearGradient>
<linearGradient id="paint14_linear_26_346" x1="256.589" y1="202.082" x2="136.01" y2="222.064" gradientUnits="userSpaceOnUse">
<stop stop-color="#BFDDBD"/>
<stop offset="0.28" stop-color="#95CAB1"/>
<stop offset="0.54" stop-color="#73BAA7"/>
<stop offset="0.69" stop-color="#67B5A4"/>
<stop offset="0.75" stop-color="#6FB8A6"/>
<stop offset="0.84" stop-color="#86C3AD"/>
<stop offset="0.95" stop-color="#ACD4B7"/>
<stop offset="1" stop-color="#BFDDBD"/>
</linearGradient>
<linearGradient id="paint15_linear_26_346" x1="108.134" y1="204.019" x2="142.937" y2="173.683" gradientUnits="userSpaceOnUse">
<stop stop-color="#EB5758"/>
<stop offset="0.08" stop-color="#ED695F"/>
<stop offset="0.27" stop-color="#F38F70"/>
<stop offset="0.46" stop-color="#F7AD7D"/>
<stop offset="0.65" stop-color="#FAC287"/>
<stop offset="0.83" stop-color="#FCCF8D"/>
<stop offset="1" stop-color="#FDD48F"/>
</linearGradient>
<linearGradient id="paint16_linear_26_346" x1="115.35" y1="197.729" x2="134.741" y2="181.025" gradientUnits="userSpaceOnUse">
<stop stop-color="#EF7878"/>
<stop offset="0.06" stop-color="#F0847E"/>
<stop offset="0.23" stop-color="#F6A58D"/>
<stop offset="0.41" stop-color="#F9BF9A"/>
<stop offset="0.59" stop-color="#FCD1A3"/>
<stop offset="0.79" stop-color="#FEDCA8"/>
<stop offset="1" stop-color="#FFE0AA"/>
</linearGradient>
<linearGradient id="paint17_linear_26_346" x1="193.306" y1="62.4595" x2="212.427" y2="207.378" gradientUnits="userSpaceOnUse">
<stop stop-color="#3D4B4A"/>
<stop offset="0.51" stop-color="#1C2322"/>
<stop offset="1" stop-color="#010101"/>
</linearGradient>
<linearGradient id="paint18_linear_26_346" x1="203.112" y1="105.689" x2="276.743" y2="191.552" gradientUnits="userSpaceOnUse">
<stop stop-color="#3D4B4A"/>
<stop offset="0.51" stop-color="#1C2322"/>
<stop offset="1" stop-color="#010101"/>
</linearGradient>
<linearGradient id="paint19_linear_26_346" x1="189.705" y1="117.187" x2="263.336" y2="203.05" gradientUnits="userSpaceOnUse">
<stop stop-color="#3D4B4A"/>
<stop offset="0.51" stop-color="#1C2322"/>
<stop offset="1" stop-color="#010101"/>
</linearGradient>
<linearGradient id="paint20_linear_26_346" x1="395.644" y1="79.1596" x2="344.423" y2="9.37731" gradientUnits="userSpaceOnUse">
<stop stop-color="#EF7878"/>
<stop offset="0.06" stop-color="#F0847E"/>
<stop offset="0.23" stop-color="#F6A58D"/>
<stop offset="0.41" stop-color="#F9BF9A"/>
<stop offset="0.59" stop-color="#FCD1A3"/>
<stop offset="0.79" stop-color="#FEDCA8"/>
<stop offset="1" stop-color="#FFE0AA"/>
</linearGradient>
<linearGradient id="paint21_linear_26_346" x1="420.515" y1="71.621" x2="351.75" y2="154.277" gradientUnits="userSpaceOnUse">
<stop stop-color="#3D8091"/>
<stop offset="1" stop-color="#1D3D78"/>
</linearGradient>
<linearGradient id="paint22_linear_26_346" x1="422.31" y1="103.893" x2="360.328" y2="103.893" gradientUnits="userSpaceOnUse">
<stop stop-color="#BFDDBD"/>
<stop offset="0.28" stop-color="#95CAB1"/>
<stop offset="0.54" stop-color="#73BAA7"/>
<stop offset="0.69" stop-color="#67B5A4"/>
<stop offset="0.75" stop-color="#6FB8A6"/>
<stop offset="0.84" stop-color="#86C3AD"/>
<stop offset="0.95" stop-color="#ACD4B7"/>
<stop offset="1" stop-color="#BFDDBD"/>
</linearGradient>
<linearGradient id="paint23_linear_26_346" x1="397.503" y1="52.4783" x2="328.739" y2="135.135" gradientUnits="userSpaceOnUse">
<stop stop-color="#3D8091"/>
<stop offset="1" stop-color="#1D3D78"/>
</linearGradient>
<linearGradient id="paint24_linear_26_346" x1="388.264" y1="117.81" x2="434.416" y2="114.594" gradientUnits="userSpaceOnUse">
<stop stop-color="#3D8091"/>
<stop offset="1" stop-color="#1D3D78"/>
</linearGradient>
<linearGradient id="paint25_linear_26_346" x1="390.544" y1="42.1514" x2="392.157" y2="110.366" gradientUnits="userSpaceOnUse">
<stop stop-color="#AFD4D5"/>
<stop offset="0.4" stop-color="#647979"/>
<stop offset="0.81" stop-color="#1D2323"/>
<stop offset="1" stop-color="#010101"/>
</linearGradient>
<linearGradient id="paint26_linear_26_346" x1="348.813" y1="481.921" x2="432.09" y2="371.345" gradientUnits="userSpaceOnUse">
<stop stop-color="#EF7878"/>
<stop offset="0.06" stop-color="#F0847E"/>
<stop offset="0.23" stop-color="#F6A58D"/>
<stop offset="0.41" stop-color="#F9BF9A"/>
<stop offset="0.59" stop-color="#FCD1A3"/>
<stop offset="0.79" stop-color="#FEDCA8"/>
<stop offset="1" stop-color="#FFE0AA"/>
</linearGradient>
<linearGradient id="paint27_linear_26_346" x1="349.202" y1="346.979" x2="384.674" y2="426.45" gradientUnits="userSpaceOnUse">
<stop stop-color="#3D8091"/>
<stop offset="1" stop-color="#1D3D78"/>
</linearGradient>
<linearGradient id="paint28_linear_26_346" x1="422.98" y1="301.174" x2="437.495" y2="400.272" gradientUnits="userSpaceOnUse">
<stop stop-color="#3D8091"/>
<stop offset="1" stop-color="#1D3D78"/>
</linearGradient>
<linearGradient id="paint29_linear_26_346" x1="511.898" y1="534.43" x2="403.295" y2="534.43" gradientUnits="userSpaceOnUse">
<stop stop-color="#E94D35"/>
<stop offset="1" stop-color="#B1191C"/>
</linearGradient>
<linearGradient id="paint30_linear_26_346" x1="334.46" y1="330.673" x2="222.958" y2="330.673" gradientUnits="userSpaceOnUse">
<stop stop-color="#E94D35"/>
<stop offset="1" stop-color="#B1191C"/>
</linearGradient>
<linearGradient id="paint31_linear_26_346" x1="473.312" y1="464.985" x2="420.42" y2="502.539" gradientUnits="userSpaceOnUse">
<stop stop-color="#3D8091"/>
<stop offset="1" stop-color="#1D3D78"/>
</linearGradient>
<linearGradient id="paint32_linear_26_346" x1="493.937" y1="494.034" x2="441.046" y2="531.587" gradientUnits="userSpaceOnUse">
<stop stop-color="#3D8091"/>
<stop offset="1" stop-color="#1D3D78"/>
</linearGradient>
</defs>
</svg>
